<?xml version="1.0" standalone="no"?>
<!DOCTYPE svg PUBLIC "-//W3C//DTD SVG 20010904//EN"
 "http://www.w3.org/TR/2001/REC-SVG-20010904/DTD/svg10.dtd">
<svg version="1.0" xmlns="http://www.w3.org/2000/svg"
 width="160.000000pt" height="160.000000pt" viewBox="0 0 160.000000 160.000000"
 preserveAspectRatio="xMidYMid meet">
<metadata>
Created by potrace 1.14, written by Peter Selinger 2001-2017
</metadata>
<g transform="translate(0.000000,160.000000) scale(0.100000,-0.100000)"
fill="#000000" stroke="none">
<path d="M853 1565 c-41 -17 -70 -73 -78 -151 -4 -32 -8 -71 -11 -85 -4 -27
-8 -62 -19 -154 -3 -27 -7 -61 -10 -75 -3 -24 -8 -61 -21 -175 -8 -69 -13 -84
-34 -95 -45 -24 -71 44 -155 392 -22 94 -42 143 -67 169 -53 52 -127 33 -148
-39 -9 -31 -6 -54 19 -149 16 -62 26 -113 22 -113 -4 0 -14 9 -24 20 -11 13
-29 20 -52 20 -51 0 -79 -36 -77 -100 1 -27 13 -91 22 -115 6 -17 11 -31 10
-33 0 -1 4 -19 10 -40 6 -20 26 -131 46 -247 56 -339 68 -377 146 -461 74 -81
186 -116 343 -109 107 5 104 5 182 34 103 38 200 148 307 346 48 88 97 133
211 192 50 25 93 51 97 57 5 6 6 23 4 37 -11 72 -82 120 -168 113 -63 -5 -91
-20 -156 -83 -43 -41 -59 -51 -87 -51 -39 0 -70 27 -78 68 -6 29 -1 172 7 212
3 13 8 42 11 65 3 22 8 47 10 55 14 52 40 273 37 307 -7 76 -95 110 -148 58
-14 -14 -26 -25 -28 -25 -2 0 -2 14 0 32 10 87 -55 151 -123 123z"/>
</g>
</svg>
